<svg width="34" height="34" viewBox="0 0 34 34" fill="none" xmlns="http://www.w3.org/2000/svg">
<path d="M17 22.0646C17.1889 22.0646 17.366 22.0348 17.5313 21.9753C17.6965 21.9168 17.85 21.8167 17.9917 21.675L21.675 17.9917C21.9347 17.7319 22.0646 17.4014 22.0646 17C22.0646 16.5986 21.9347 16.2681 21.675 16.0083C21.4153 15.7486 21.0847 15.6187 20.6833 15.6187C20.282 15.6187 19.9514 15.7486 19.6917 16.0083L18.4167 17.2833V12.75C18.4167 12.3486 18.2812 12.0119 18.0101 11.7399C17.7381 11.4689 17.4014 11.3333 17 11.3333C16.5986 11.3333 16.2624 11.4689 15.9913 11.7399C15.7193 12.0119 15.5833 12.3486 15.5833 12.75V17.2833L14.3083 16.0083C14.0486 15.7486 13.7181 15.6187 13.3167 15.6187C12.9153 15.6187 12.5847 15.7486 12.325 16.0083C12.0653 16.2681 11.9354 16.5986 11.9354 17C11.9354 17.4014 12.0653 17.7319 12.325 17.9917L16.0083 21.675C16.15 21.8167 16.3035 21.9168 16.4688 21.9753C16.634 22.0348 16.8111 22.0646 17 22.0646ZM17 31.1667C15.0403 31.1667 13.1986 30.7946 11.475 30.0503C9.7514 29.3071 8.25209 28.2979 6.97709 27.0229C5.70209 25.7479 4.69295 24.2486 3.94968 22.525C3.20545 20.8014 2.83334 18.9597 2.83334 17C2.83334 15.0403 3.20545 13.1986 3.94968 11.475C4.69295 9.75139 5.70209 8.25208 6.97709 6.97708C8.25209 5.70208 9.7514 4.69247 11.475 3.94825C13.1986 3.20497 15.0403 2.83333 17 2.83333C18.9597 2.83333 20.8014 3.20497 22.525 3.94825C24.2486 4.69247 25.7479 5.70208 27.0229 6.97708C28.2979 8.25208 29.3071 9.75139 30.0503 11.475C30.7946 13.1986 31.1667 15.0403 31.1667 17C31.1667 18.9597 30.7946 20.8014 30.0503 22.525C29.3071 24.2486 28.2979 25.7479 27.0229 27.0229C25.7479 28.2979 24.2486 29.3071 22.525 30.0503C20.8014 30.7946 18.9597 31.1667 17 31.1667ZM17 28.3333C20.1403 28.3333 22.8145 27.2297 25.0226 25.0226C27.2298 22.8145 28.3333 20.1403 28.3333 17C28.3333 13.8597 27.2298 11.1855 25.0226 8.97742C22.8145 6.77025 20.1403 5.66667 17 5.66667C13.8597 5.66667 11.186 6.77025 8.97884 8.97742C6.77073 11.1855 5.66668 13.8597 5.66668 17C5.66668 20.1403 6.77073 22.8145 8.97884 25.0226C11.186 27.2297 13.8597 28.3333 17 28.3333Z" fill="black"/>
</svg>
