<svg width="46" height="67" viewBox="0 0 46 67" fill="none" xmlns="http://www.w3.org/2000/svg">
<path d="M22.4216 20.6162C24.8382 20.5956 27.2373 21.0281 29.4945 21.8913C27.8345 13.5577 25.274 8.46076 22.4077 8.46457H22.4046C19.5389 8.47011 16.9931 13.5723 15.3541 21.908C17.6085 21.0398 20.0055 20.6016 22.4212 20.6162H22.4216Z" fill="white"/>
<path d="M22.5896 60.0058L18.9424 60.0107C19.8625 65.7201 21.1633 66.7881 22.6013 66.7861C24.0393 66.784 25.3312 65.7121 26.2388 60.0013L22.5896 60.0058Z" fill="white"/>
<path d="M31.4573 43.7685C31.308 39.5029 31.0129 35.0202 30.5289 30.3441C30.2809 27.9476 29.9974 25.6149 29.6784 23.3463C25.0108 21.5432 19.8378 21.5493 15.1743 23.3633C14.8632 25.6536 14.5861 28.0082 14.3429 30.4269C13.8717 35.1383 13.5877 39.6564 13.4477 43.9576C9.41877 46.9369 6.63697 52.5878 6.64632 60.001L13.3417 59.9923C14.5667 59.9923 15.2959 59.6805 15.2959 58.431L15.2917 58.4074L22.4704 58.3984L29.8839 58.389C29.8839 59.712 30.5844 59.9708 31.8145 59.9691L38.5352 59.9608C38.5248 52.4059 35.619 46.658 31.4573 43.7685ZM22.4274 25.526C22.978 25.5253 23.5165 25.6878 23.9747 25.9931C24.433 26.2984 24.7904 26.7327 25.0018 27.2411C25.2132 27.7495 25.269 28.3092 25.1623 28.8494C25.0556 29.3896 24.7911 29.886 24.4023 30.2758C24.0135 30.6657 23.5177 30.9315 22.9778 31.0396C22.4379 31.1477 21.8781 31.0933 21.3691 30.8832C20.8602 30.6732 20.425 30.3169 20.1185 29.8595C19.812 29.402 19.648 28.864 19.6473 28.3134C19.6465 27.5751 19.9389 26.8668 20.4603 26.3441C20.9816 25.8214 21.6892 25.5271 22.4274 25.526ZM22.4392 34.5951C22.9897 34.5944 23.5281 34.7569 23.9862 35.0625C24.4444 35.3677 24.8017 35.8017 25.013 36.3103C25.2243 36.8185 25.2801 37.3783 25.1734 37.9184C25.0667 38.4585 24.8022 38.9546 24.4134 39.3443C24.0246 39.7344 23.5289 40.0001 22.9891 40.1082C22.4493 40.2162 21.8895 40.1615 21.3806 39.9516C20.8717 39.7416 20.4366 39.3855 20.1302 38.9279C19.8237 38.4706 19.6598 37.9326 19.6591 37.3821C19.6583 36.6439 19.9507 35.9355 20.472 35.413C20.9934 34.8903 21.701 34.5961 22.4392 34.5951ZM22.4579 49.2316C21.9074 49.2323 21.369 49.0698 20.9109 48.7643C20.4527 48.4591 20.0954 48.025 19.8841 47.5165C19.6728 47.0083 19.617 46.4484 19.7237 45.9084C19.8305 45.3683 20.095 44.8722 20.4838 44.4821C20.8725 44.0924 21.3682 43.8267 21.908 43.7186C22.4478 43.6105 23.0076 43.6649 23.5164 43.8752C24.0253 44.0851 24.4605 44.4412 24.7669 44.8989C25.0734 45.3562 25.2373 45.8942 25.238 46.4446C25.2384 46.8101 25.1669 47.1721 25.0274 47.5102C24.8879 47.848 24.6832 48.1553 24.425 48.4141C24.1668 48.6728 23.8602 48.8783 23.5226 49.0186C23.185 49.1589 22.8231 49.2316 22.4575 49.232L22.4579 49.2316Z" fill="white"/>
<path d="M22.4306 26.687C22.0042 26.6937 21.5977 26.8679 21.2988 27.1719C21 27.476 20.8327 27.8854 20.8333 28.3118C20.8338 28.7382 21.0021 29.1472 21.3018 29.4505C21.6014 29.7538 22.0084 29.9269 22.4347 29.9326C22.8651 29.9321 23.2777 29.7605 23.5816 29.4558C23.8856 29.1511 24.056 28.7381 24.0555 28.3077C24.0549 27.8773 23.8834 27.4647 23.5787 27.1608C23.274 26.8568 22.861 26.6864 22.4306 26.687Z" fill="white"/>
<path d="M22.4423 35.756H22.4392C22.0128 35.7626 21.6063 35.9369 21.3074 36.241C21.0086 36.5452 20.8413 36.9547 20.8419 37.3808C20.8424 37.8072 21.0107 38.2163 21.3104 38.5195C21.61 38.8229 22.017 38.9961 22.4433 39.0017C22.8738 39.0013 23.2864 38.8299 23.5904 38.525C23.8945 38.2205 24.065 37.8072 24.0646 37.3769C24.0641 36.9463 23.8927 36.5338 23.588 36.2299C23.2833 35.9258 22.8703 35.7553 22.4399 35.7557L22.4423 35.756Z" fill="white"/>
<path d="M22.4538 44.8254H22.452C22.0257 44.832 21.6192 45.0063 21.3203 45.3104C21.0214 45.6146 20.8542 46.0241 20.8547 46.4502C20.8553 46.8766 21.0236 47.2858 21.3232 47.5889C21.6229 47.8923 22.0299 48.0656 22.4562 48.0711C22.8866 48.0704 23.2992 47.8993 23.6031 47.5944C23.9071 47.2896 24.0776 46.8766 24.0771 46.4464C24.0766 46.0161 23.9052 45.6035 23.6004 45.2993C23.2958 44.9955 22.8828 44.8251 22.4524 44.8254H22.4538Z" fill="white"/>
<path d="M31.2159 21.6994C29.844 14.8142 27.2019 6.60393 22.4025 6.60393H22.355C18.5201 6.64862 15.5807 11.7342 13.6175 21.7199L13.6133 21.7414L13.0646 24.864C12.8425 26.2764 12.645 27.7425 12.4756 29.2345C12.4419 29.5313 12.4092 29.8304 12.3776 30.1318C12.1677 32.1334 12.0024 34.2356 11.8846 36.3938C11.2905 35.9355 10.726 35.4401 10.1944 34.9104C7.67543 32.3946 5.98567 29.169 5.35167 25.6658C4.71768 22.1626 5.16973 18.5493 6.64727 15.3103C8.12478 12.0712 10.5571 9.36128 13.6183 7.54365C16.6794 5.72602 20.223 4.88764 23.7741 5.1408C27.3252 5.39397 30.714 6.72664 33.4863 8.96015C36.2588 11.1937 38.2819 14.2213 39.2848 17.6372C40.2881 21.053 40.223 24.6939 39.0985 28.0717C37.9736 31.4496 35.8435 34.4029 32.9931 36.5358C32.8697 34.3222 32.6955 32.1636 32.4734 30.1065C32.4409 29.8063 32.4075 29.5072 32.3733 29.2093C32.2001 27.7196 32.0006 26.2532 31.7747 24.8443L31.2159 21.6994Z" fill="white"/>
<path d="M22.513 0.000707505C17.528 0.0141417 12.6876 1.67731 8.74712 4.73068C4.80663 7.78408 1.98769 12.0559 0.730115 16.8797C-0.527456 21.7035 -0.152923 26.8079 1.79528 31.3965C3.74349 35.985 7.15578 39.7999 11.4998 42.2453C11.5459 41.3054 11.5972 40.376 11.6536 39.4576C9.0262 37.7598 6.829 35.4751 5.23499 32.7833C3.43357 29.7313 2.47128 26.2571 2.44574 22.7131C2.42021 19.1692 3.33232 15.6815 5.08959 12.6038C6.84684 9.52608 9.38673 6.96783 12.4517 5.18841C15.5167 3.40903 18.9977 2.47182 22.5417 2.47182C26.0858 2.47182 29.5668 3.40903 32.6318 5.18841C35.6966 6.96783 38.2366 9.52608 39.994 12.6038C41.751 15.6815 42.6632 19.1692 42.6376 22.7131C42.6123 26.2571 41.6499 29.7313 39.8485 32.7833C38.2127 35.5457 35.9422 37.8782 33.2248 39.5882C33.2812 40.5021 33.3332 41.4249 33.3811 42.3572C37.7775 39.9485 41.247 36.1444 43.2417 31.5453C45.2364 26.9461 45.6431 21.8136 44.397 16.9578C43.1513 12.1019 40.3238 7.79918 36.361 4.72857C32.3985 1.65792 27.5261 -0.00576948 22.513 1.50333e-05V0.000707505Z" fill="white"/>
</svg>
