<svg width="34" height="34" viewBox="0 0 34 34" fill="none" xmlns="http://www.w3.org/2000/svg">
<mask id="mask0_11_24" style="mask-type:alpha" maskUnits="userSpaceOnUse" x="0" y="3" width="34" height="29">
<path d="M19.125 28.3333H4.95833C4.39475 28.3333 3.85425 28.1094 3.45573 27.7109C3.05722 27.3124 2.83333 26.7719 2.83333 26.2083V7.79167C2.83333 7.22808 3.05722 6.68758 3.45573 6.28907C3.85425 5.89055 4.39475 5.66667 4.95833 5.66667H29.0417C29.6053 5.66667 30.1458 5.89055 30.5443 6.28907C30.9428 6.68758 31.1667 7.22808 31.1667 7.79167V17M24.0833 25.5L27.625 29.0417L31.1667 25.5M27.625 20.5417V29.0417" stroke="white" stroke-width="4" stroke-linecap="round" stroke-linejoin="round"/>
<path d="M2.83333 7.79167C2.83333 7.22808 3.05722 6.68758 3.45573 6.28907C3.85425 5.89055 4.39475 5.66667 4.95833 5.66667H29.0417C29.6053 5.66667 30.1458 5.89055 30.5443 6.28907C30.9428 6.68758 31.1667 7.22808 31.1667 7.79167V14.1667H2.83333V7.79167Z" fill="white" stroke="white" stroke-width="4"/>
<path d="M5.66667 9.91667C5.66667 9.13427 6.30093 8.5 7.08333 8.5C7.86574 8.5 8.5 9.13427 8.5 9.91667C8.5 10.6991 7.86574 11.3333 7.08333 11.3333C6.30093 11.3333 5.66667 10.6991 5.66667 9.91667Z" fill="black"/>
<path d="M9.91667 9.91667C9.91667 9.13427 10.5509 8.5 11.3333 8.5C12.1157 8.5 12.75 9.13427 12.75 9.91667C12.75 10.6991 12.1157 11.3333 11.3333 11.3333C10.5509 11.3333 9.91667 10.6991 9.91667 9.91667Z" fill="black"/>
</mask>
<g mask="url(#mask0_11_24)">
<path d="M0 0H34V34H0V0Z" fill="white"/>
</g>
</svg>
